WaRlOrD presents: Spiderman The animated series
-----------------------------------------------
(((((no subs))))) 
http://en.wikipedia.org/wiki/Spider-Man_%281994_TV_series%29

Spider-Man, also known as Spider-Man: The Animated Series, is an American animated series starring the famous Marvel Comics superhero, Spider-Man. The show ran on Fox Kids from November 19, 1994, to January 31, 1998. The producer/story editor was John Semper, Jr. and production company was Marvel Productions. Reruns can currently be seen on Jetix Europe and Disney XD.

Format : AVI
Format/Info : Audio Video Interleave
File size : 241 MiB
Duration : 19mn 27s
Overall bit rate : 1 730 Kbps
Writing library : VirtualDub build 18160/release

Video
ID : 0
Format : MPEG-4 Visual
Format settings, BVOP : Yes
Format settings, QPel : No
Format settings, GMC : No warppoints
Format settings, Matrix : Default (H.263)
Muxing mode : Packed bitstream
Codec ID : DX50
Codec ID/Hint : DivX 5
Duration : 19mn 27s
Bit rate : 1 592 Kbps
Width : 480 pixels
Height : 360 pixels
Display aspect ratio : 4/3
Frame rate : 25.000 fps
Resolution : 24 bits
Colorimetry : 4:2:0
Scan type : Progressive
Bits/(Pixel*Frame) : 0.368
Stream size : 221 MiB (92%)
Writing library : DivX 5.1.1 (Maupiti) (UTC 2003-11-19)

Audio
ID : 1
Format : MPEG Audio
Format version : Version 1
Format profile : Layer 3
Codec ID : 55
Codec ID/Hint : MP3
Duration : 19mn 26s
Bit rate mode : Constant
Bit rate : 128 Kbps
Channel(s) : 2 channels
Sampling rate : 44.1 KHz
Resolution : 16 bits
Stream size : 17.8 MiB (7%)
Alignment : Split accross interleaves
Interleave, duration : 40 ms (1.00 video frame)
Interleave, preload duration : 500 ms

Good quality, first episode from first season has bad quality audio. All the others are very good.

